HIERARCHY
ROOT Hips
{
  OFFSET 5.84602e-005 68.8428 3.50346
  CHANNELS 6 Xposition Yposition Zposition Zrotation Xrotation Yrotation
  JOINT Spine
  {
    OFFSET 0 8.597 -4.6522
    CHANNELS 3 Zrotation Xrotation Yrotation
    JOINT Spine1
    {
      OFFSET 0 7.8454 0.4098
      CHANNELS 3 Zrotation Xrotation Yrotation
      JOINT Spine2
      {
        OFFSET 0 9.7078 -2.1609
        CHANNELS 3 Zrotation Xrotation Yrotation
        JOINT Neck
        {
          OFFSET 0 21.8761 -0.4549
          CHANNELS 3 Zrotation Xrotation Yrotation
          JOINT Head
          {
            OFFSET 0 12.3537 3.3602
            CHANNELS 3 Zrotation Xrotation Yrotation
            End Site
            {
              OFFSET 0.0001 18.9506 0.5657
            }
          }
        }
        JOINT LeftShoulder
        {
          OFFSET 2.2086 21.1115 7.2329
          CHANNELS 3 Zrotation Xrotation Yrotation
          JOINT LeftArm
          {
            OFFSET 13.1193 3.0282 -4.8998
            CHANNELS 3 Zrotation Xrotation Yrotation
            JOINT LeftForeArm
            {
              OFFSET 27.4081 -0.0973053 -0.2375
              CHANNELS 3 Zrotation Xrotation Yrotation
              JOINT LeftHand
              {
                OFFSET 22.8641 0.0662994 -0.1369
                CHANNELS 3 Zrotation Xrotation Yrotation
                JOINT LeftHandIndex1
                {
                  OFFSET 8.8614 0.775009 2.4612
                  CHANNELS 3 Zrotation Xrotation Yrotation
                  JOINT LeftHandIndex2
                  {
                    OFFSET 3.3146 -0.808304 0.5841
                    CHANNELS 3 Zrotation Xrotation Yrotation
                    JOINT LeftHandIndex3
                    {
                      OFFSET 2.2628 -0.552002 0.3989
                      CHANNELS 3 Zrotation Xrotation Yrotation
                      End Site
                      {
                        OFFSET 1.6102 -0.4807 0.2612
                      }
                    }
                  }
                }
                JOINT LeftHandMiddle1
                {
                  OFFSET 8.9937 0.895004 0.2143
                  CHANNELS 3 Zrotation Xrotation Yrotation
                  JOINT LeftHandMiddle2
                  {
                    OFFSET 4.0984 0.0113983 -0.0242
                    CHANNELS 3 Zrotation Xrotation Yrotation
                    JOINT LeftHandMiddle3
                    {
                      OFFSET 2.2716 0.00689697 -0.0138001
                      CHANNELS 3 Zrotation Xrotation Yrotation
                      End Site
                      {
                        OFFSET 2.0404 -0.1441 0.0027
                      }
                    }
                  }
                }
                JOINT LeftHandRing1
                {
                  OFFSET 8.5234 0.597198 -2.0164
                  CHANNELS 3 Zrotation Xrotation Yrotation
                  JOINT LeftHandRing2
                  {
                    OFFSET 3.7188 -0.188293 -0.2328
                    CHANNELS 3 Zrotation Xrotation Yrotation
                    JOINT LeftHandRing3
                    {
                      OFFSET 2.1191 -0.106598 -0.1332
                      CHANNELS 3 Zrotation Xrotation Yrotation
                      End Site
                      {
                        OFFSET 1.8737 -0.2304 -0.0886
                      }
                    }
                  }
                }
                JOINT LeftHandPinky1
                {
                  OFFSET 7.9094 -0.601089 -3.4825
                  CHANNELS 3 Zrotation Xrotation Yrotation
                  JOINT LeftHandPinky2
                  {
                    OFFSET 2.2874 -0.477005 -0.6314
                    CHANNELS 3 Zrotation Xrotation Yrotation
                    JOINT LeftHandPinky3
                    {
                      OFFSET 1.6774 -0.349396 -0.4633
                      CHANNELS 3 Zrotation Xrotation Yrotation
                      End Site
                      {
                        OFFSET 1.4888 -0.4091 -0.3416
                      }
                    }
                  }
                }
                JOINT LeftHandThumb1
                {
                  OFFSET 1.833 -1.3875 1.3896
                  CHANNELS 3 Zrotation Xrotation Yrotation
                  JOINT LeftHandThumb2
                  {
                    OFFSET 3.4129 -1.121 2.5732
                    CHANNELS 3 Zrotation Xrotation Yrotation
                    JOINT LeftHandThumb3
                    {
                      OFFSET 2.2474 -0.804199 1.6192
                      CHANNELS 3 Zrotation Xrotation Yrotation
                      End Site
                      {
                        OFFSET 1.6527 -0.5689 1.1317
                      }
                    }
                  }
                }
              }
            }
          }
        }
        JOINT RightShoulder
        {
          OFFSET -2.2086 21.1115 7.2329
          CHANNELS 3 Zrotation Xrotation Yrotation
          JOINT RightArm
          {
            OFFSET -13.1216 3.0287 -4.9007
            CHANNELS 3 Zrotation Xrotation Yrotation
            JOINT RightForeArm
            {
              OFFSET -27.4081 -0.0973053 -0.2375
              CHANNELS 3 Zrotation Xrotation Yrotation
              JOINT RightHand
              {
                OFFSET -22.8641 0.0664063 -0.1369
                CHANNELS 3 Zrotation Xrotation Yrotation
                JOINT RightHandIndex1
                {
                  OFFSET -8.8614 0.774994 2.4612
                  CHANNELS 3 Zrotation Xrotation Yrotation
                  JOINT RightHandIndex2
                  {
                    OFFSET -3.3146 -0.808304 0.5841
                    CHANNELS 3 Zrotation Xrotation Yrotation
                    JOINT RightHandIndex3
                    {
                      OFFSET -2.2628 -0.552002 0.3989
                      CHANNELS 3 Zrotation Xrotation Yrotation
                      End Site
                      {
                        OFFSET -1.6102 -0.4807 0.2612
                      }
                    }
                  }
                }
                JOINT RightHandMiddle1
                {
                  OFFSET -8.9937 0.894989 0.2143
                  CHANNELS 3 Zrotation Xrotation Yrotation
                  JOINT RightHandMiddle2
                  {
                    OFFSET -4.0984 0.0113983 -0.0242
                    CHANNELS 3 Zrotation Xrotation Yrotation
                    JOINT RightHandMiddle3
                    {
                      OFFSET -2.2716 0.00691223 -0.0138001
                      CHANNELS 3 Zrotation Xrotation Yrotation
                      End Site
                      {
                        OFFSET -2.0404 -0.1441 0.0027
                      }
                    }
                  }
                }
                JOINT RightHandRing1
                {
                  OFFSET -8.5234 0.597198 -2.0164
                  CHANNELS 3 Zrotation Xrotation Yrotation
                  JOINT RightHandRing2
                  {
                    OFFSET -3.7188 -0.188309 -0.2328
                    CHANNELS 3 Zrotation Xrotation Yrotation
                    JOINT RightHandRing3
                    {
                      OFFSET -2.1191 -0.106598 -0.1332
                      CHANNELS 3 Zrotation Xrotation Yrotation
                      End Site
                      {
                        OFFSET -1.8737 -0.2304 -0.0886
                      }
                    }
                  }
                }
                JOINT RightHandPinky1
                {
                  OFFSET -7.9094 -0.601105 -3.4825
                  CHANNELS 3 Zrotation Xrotation Yrotation
                  JOINT RightHandPinky2
                  {
                    OFFSET -2.2874 -0.477005 -0.6314
                    CHANNELS 3 Zrotation Xrotation Yrotation
                    JOINT RightHandPinky3
                    {
                      OFFSET -1.6774 -0.349396 -0.4633
                      CHANNELS 3 Zrotation Xrotation Yrotation
                      End Site
                      {
                        OFFSET -1.4888 -0.4091 -0.3416
                      }
                    }
                  }
                }
                JOINT RightHandThumb1
                {
                  OFFSET -1.833 -1.38751 1.3896
                  CHANNELS 3 Zrotation Xrotation Yrotation
                  JOINT RightHandThumb2
                  {
                    OFFSET -3.41299 -1.12099 2.5732
                    CHANNELS 3 Zrotation Xrotation Yrotation
                    JOINT RightHandThumb3
                    {
                      OFFSET -2.24741 -0.804108 1.6192
                      CHANNELS 3 Zrotation Xrotation Yrotation
                      End Site
                      {
                        OFFSET -1.6527 -0.5689 1.1317
                      }
                    }
                  }
                }
              }
            }
          }
        }
      }
    }
  }
  JOINT RightUpLeg
  {
    OFFSET -9.1966 3.8861 -0.7581
    CHANNELS 3 Zrotation Xrotation Yrotation
    JOINT RightLeg
    {
      OFFSET -0.7359 -41.0265 0
      CHANNELS 3 Zrotation Xrotation Yrotation
      JOINT RightFoot
      {
        OFFSET 0 -40.2855 0
        CHANNELS 3 Zrotation Xrotation Yrotation
        JOINT RightToeBase
        {
          OFFSET 0 -5.6122 11.7359
          CHANNELS 3 Zrotation Xrotation Yrotation
          End Site
          {
            OFFSET 0 0 7.8731
          }
        }
      }
    }
  }
  JOINT LeftUpLeg
  {
    OFFSET 9.1965 3.8864 -0.7581
    CHANNELS 3 Zrotation Xrotation Yrotation
    JOINT LeftLeg
    {
      OFFSET 0.7359 -41.0268 0
      CHANNELS 3 Zrotation Xrotation Yrotation
      JOINT LeftFoot
      {
        OFFSET 0 -40.2855 0
        CHANNELS 3 Zrotation Xrotation Yrotation
        JOINT LeftToeBase
        {
          OFFSET 0 -5.6122 11.7359
          CHANNELS 3 Zrotation Xrotation Yrotation
          End Site
          {
            OFFSET 0 0 7.8731
          }
        }
      }
    }
  }
}
MOTION
Frames:	4
Frame Time:	0.0333333
-0.596526 62.1334 6.60549 -0 -0.448445 -0 -0.643458 1.86114 -0.21733 -1.28086 3.72464 -0.414051 -1.28086 3.72464 -0.414051 7.14509 9.32262 -1.20614 -2.31531e-008 11.1631 -2.47173e-008 4.59525 3.47613 -5.17457 -52.9403 -1.27617 -14.8203 -18.8991 28.3275 -67.5918 -8.16845 -0.703758 7.08345 1.96808e-006 1.7015e-007 2.25961e-006 3.69626e-006 -1.24615e-006 4.08619e-007 2.03959e-006 1.11544e-007 2.18302e-006 1.96808e-006 1.7015e-007 2.25961e-006 -0.01461 -9.03506e-005 7.55418e-007 2.03583e-006 1.14522e-007 2.18729e-006 1.96808e-006 1.7015e-007 2.25961e-006 -0.0187868 -0.00118198 5.51888e-005 1.01382e-006 -1.76333e-007 1.44938e-006 1.96808e-006 1.7015e-007 2.25961e-006 -0.0123001 -0.00325605 0.000681188 2.03586e-006 1.14601e-007 2.18722e-006 1.96808e-006 1.7015e-007 2.25961e-006 3.69626e-006 -1.24615e-006 4.08619e-007 2.03959e-006 1.11544e-007 2.18302e-006 -4.85906 3.18988 4.89181 52.6785 -1.39292 14.9449 18.7982 27.9856 66.9961 9.43493 -0.530774 -6.43361 -5.03139e-007 -4.54473e-007 5.18241e-007 -6.28923e-007 -5.68091e-007 6.47801e-007 -6.28923e-007 -5.68091e-007 6.47801e-007 -5.03139e-007 -4.54473e-007 5.18241e-007 0.015001 -9.55003e-005 -1.49889e-007 -6.28919e-007 -5.68006e-007 6.47876e-007 -5.03139e-007 -4.54473e-007 5.18241e-007 0.0190322 -0.00119511 -6.03887e-005 -6.28911e-007 -5.67984e-007 6.47902e-007 -5.03139e-007 -4.54473e-007 5.18241e-007 0.0123111 -0.00325444 -0.000682839 -6.28898e-007 -5.68026e-007 6.4788e-007 -5.03139e-007 -4.54473e-007 5.18241e-007 -6.28923e-007 -5.68091e-007 6.47801e-007 -6.28923e-007 -5.68091e-007 6.47801e-007 -26.3527 -24.692 -33.5888 -141.509 49.435 143.221 7.10556 24.6508 15.3753 -1.6126e-006 -4.65011e-008 -9.65528e-007 22.9956 -22.8209 32.5229 141.717 49.2715 -143.364 -5.48608 25.3361 -14.7495 7.25817e-007 1.20236e-007 -4.28318e-007 
-0.596433 62.0883 6.25971 0 0.341131 -0 -0.642493 1.58552 -0.220138 -1.27962 3.17342 -0.422713 -1.27962 3.17342 -0.422713 7.19908 9.39067 -1.21959 6.22747e-007 11.2454 3.58842e-008 4.49519 4.05289 -5.03927 -52.9403 -1.27616 -14.8203 -18.943 28.4454 -67.8784 -8.19152 -0.526496 7.26849 3.44298e-007 -2.8128e-007 -3.67734e-007 3.1373e-006 -1.89904e-006 -8.27402e-007 5.29383e-007 -4.32488e-007 -5.65417e-007 3.44298e-007 -2.8128e-007 -3.67734e-007 -0.0146112 -9.27183e-005 -3.34672e-006 5.29383e-007 -4.32416e-007 -5.65473e-007 3.44298e-007 -2.8128e-007 -3.67734e-007 -0.0187579 -0.00117824 6.23092e-005 5.29377e-007 -4.32396e-007 -5.65493e-007 3.44298e-007 -2.8128e-007 -3.67734e-007 -0.0121901 -0.00322809 0.000674325 5.29365e-007 -4.32431e-007 -5.65478e-007 3.44298e-007 -2.8128e-007 -3.67734e-007 3.1373e-006 -1.89904e-006 -8.27402e-007 5.29383e-007 -4.32488e-007 -5.65417e-007 -4.7657 3.75934 4.73868 52.6785 -1.39293 14.9449 18.8408 28.0951 67.2675 9.49103 -0.35564 -6.59497 3.78089e-007 3.40414e-007 -3.88364e-007 6.30148e-007 5.67357e-007 -6.47273e-007 5.04119e-007 4.53886e-007 -5.17818e-007 3.78089e-007 3.40414e-007 -3.88364e-007 0.0149947 -9.25779e-005 9.07496e-006 5.04115e-007 4.53818e-007 -5.17878e-007 3.78089e-007 3.40414e-007 -3.88364e-007 0.0189579 -0.00119678 -6.88426e-005 5.04109e-007 4.538e-007 -5.17899e-007 3.78089e-007 3.40414e-007 -3.88364e-007 0.0122973 -0.00325569 -0.000676182 5.04099e-007 4.53834e-007 -5.17881e-007 3.78089e-007 3.40414e-007 -3.88364e-007 6.30148e-007 5.67357e-007 -6.47273e-007 5.04119e-007 4.53886e-007 -5.17818e-007 -26.2363 -25.9013 -33.7441 -141.84 49.1957 143.441 7.47799 24.7293 15.1843 -2.32137e-006 7.6916e-008 -5.13505e-007 22.8695 -24.0402 32.6562 142.059 49.0208 -143.591 -5.82773 25.4103 -14.5809 1.02153e-007 2.3704e-006 5.79373e-007 
-0.596346 62.0445 5.91327 0 1.13053 -0 -0.641431 1.31039 -0.222902 -1.27826 2.62319 -0.431283 -1.27826 2.62319 -0.431283 7.25326 9.45878 -1.23313 -3.54757e-007 11.3276 -2.86813e-007 4.39372 4.62924 -4.90284 -52.9403 -1.27616 -14.8203 -18.9863 28.5634 -68.1653 -8.21515 -0.349291 7.45361 3.61891e-007 -2.9473e-007 -3.8545e-007 -1.32095e-007 1.0758e-007 1.40695e-007 2.0886e-007 -1.70099e-007 -2.22457e-007 3.61891e-007 -2.9473e-007 -3.8545e-007 -0.0146212 -8.24569e-005 4.60961e-007 2.08984e-007 -1.70172e-007 -2.22612e-007 3.61891e-007 -2.9473e-007 -3.8545e-007 -0.0187434 -0.00117607 6.32814e-005 2.09013e-007 -1.7019e-007 -2.22653e-007 3.61891e-007 -2.9473e-007 -3.8545e-007 -0.0123118 -0.00325932 0.000677807 2.09102e-007 -1.70279e-007 -2.22747e-007 3.61891e-007 -2.9473e-007 -3.8545e-007 -1.32095e-007 1.0758e-007 1.40695e-007 2.0886e-007 -1.70099e-007 -2.22457e-007 -4.67073 4.3284 4.58454 52.6785 -1.39293 14.9449 18.8829 28.2049 67.5391 9.54766 -0.180694 -6.75646 6.3137e-007 5.66608e-007 -6.46758e-007 5.05096e-007 4.53286e-007 -5.17406e-007 -5.05096e-007 -4.53286e-007 5.17406e-007 6.3137e-007 5.66608e-007 -6.46758e-007 0.0149867 -9.2924e-005 -3.55732e-006 -5.05092e-007 -4.53219e-007 5.17466e-007 6.3137e-007 5.66608e-007 -6.46758e-007 0.0190443 -0.00119429 -5.83393e-005 -5.05086e-007 -4.53201e-007 5.17487e-007 6.3137e-007 5.66608e-007 -6.46758e-007 0.012277 -0.00325266 -0.000674215 -5.05076e-007 -4.53235e-007 5.17469e-007 6.3137e-007 5.66608e-007 -6.46758e-007 5.05096e-007 4.53286e-007 -5.17406e-007 -5.05096e-007 -4.53286e-007 5.17406e-007 -26.1216 -27.1103 -33.898 -142.167 48.9557 143.657 7.85114 24.8067 14.9926 -9.0397e-007 -1.69349e-007 -1.41742e-006 22.7446 -25.2592 32.7876 142.397 48.7693 -143.814 -6.17003 25.4836 -14.4116 3.0341e-006 2.31578e-007 1.66515e-007 
-0.596266 62.0021 5.56621 0 1.91968 -0 -0.640257 1.03589 -0.225613 -1.27674 2.07429 -0.439742 -1.27674 2.07429 -0.439743 7.30719 9.52686 -1.24667 -8.16861e-007 11.4099 2.39475e-008 4.29076 5.20534 -4.76533 -52.9403 -1.27616 -14.8203 -19.029 28.6817 -68.4523 -8.23937 -0.172194 7.6388 -3.91525e-007 3.17874e-007 4.15871e-007 -2.07748e-007 1.68668e-007 2.20666e-007 -4.67433e-007 3.79503e-007 4.96499e-007 -3.91525e-007 3.17874e-007 4.15871e-007 -0.014611 -8.76824e-005 -7.87713e-007 -4.67433e-007 3.79439e-007 4.96548e-007 -3.91525e-007 3.17874e-007 4.15871e-007 -0.0187803 -0.0011737 5.61225e-005 -4.67428e-007 3.79421e-007 4.96566e-007 -3.91525e-007 3.17874e-007 4.15871e-007 -0.0122836 -0.00325238 0.000675601 -4.67417e-007 3.79452e-007 4.96553e-007 -3.91525e-007 3.17874e-007 4.15871e-007 -2.07748e-007 1.68668e-007 2.20666e-007 -4.67433e-007 3.79503e-007 4.96499e-007 -4.57422 4.89719 4.42934 52.6785 -1.39293 14.9449 18.9245 28.3147 67.8108 9.60475 -0.00590756 -6.91812 -3.79549e-007 -3.39508e-007 3.87756e-007 -3.79549e-007 -3.39508e-007 3.87756e-007 -3.79549e-007 -3.39508e-007 3.87756e-007 -3.79549e-007 -3.39508e-007 3.87756e-007 0.0150017 -8.98227e-005 6.01489e-007 -3.79546e-007 -3.39457e-007 3.87801e-007 -3.79549e-007 -3.39508e-007 3.87756e-007 0.0190452 -0.00118897 -5.50756e-005 -3.79542e-007 -3.39443e-007 3.87816e-007 -3.79549e-007 -3.39508e-007 3.87756e-007 0.0122939 -0.00325689 -0.000681613 -3.79534e-007 -3.39469e-007 3.87803e-007 -3.79549e-007 -3.39508e-007 3.87756e-007 -3.79549e-007 -3.39508e-007 3.87756e-007 -3.79549e-007 -3.39508e-007 3.87756e-007 -26.0085 -28.3188 -34.0504 -142.491 48.7148 143.87 8.22502 24.8831 14.8001 3.03011e-006 -2.00968e-007 6.14418e-008 22.6207 -26.4777 32.917 142.732 48.5168 -144.034 -6.513 25.5561 -14.2416 -3.03409e-006 -2.32026e-007 -1.66496e-007 
